<svg xmlns="http://www.w3.org/2000/svg" viewBox="0 0 928.82 421.36"><defs><style>.cls-1{fill:#333;}.cls-2{fill:#09c5d3;}</style></defs><title>Logo-CalderaPay</title><g id="Layer_2" data-name="Layer 2"><path class="cls-1" d="M386.81,172.51c-1.49,14-11,27.06-41.67,27.06-27.07,0-36.53-11.29-36.53-23.9,0-1.17.16-2.66.33-4.32l7.31-60.27c1.66-14,11-27.07,41.67-27.07,26.9,0,36.53,11.13,36.53,23.75,0,1.16-.17,2.65-.33,4.31l-.83,7c-.34,3-1.5,4.15-4.32,4.15H375c-3,0-3.82-1.5-3.48-4.15l.49-3.16a24.2,24.2,0,0,0,.17-3.15c0-6.64-5.31-10.13-15.61-10.13-11.12,0-17.26,4.15-18.26,12.45l-6.48,52.3c-.16,1.33-.33,2.49-.33,3.16,0,7,5.48,10.46,15.61,10.46,11.12,0,17.6-4.15,18.43-12.46l.66-6.3c.34-3,1.66-4.16,4.65-4.16h13.78c3.16,0,3.66,1.66,3.32,4.16Z"/><path class="cls-1" d="M450.07,190.28c-5.31,3.65-13.44,9.29-27.06,9.29-14.28,0-22.08-7.63-22.08-20.09a40.4,40.4,0,0,1,.33-4.15l4.65-36.86c1.82-14.78,9.13-24.24,26.4-24.24a39.39,39.39,0,0,1,25.57,9.13l.83-3.65c.66-2.82,1.49-4.15,4.48-4.15h13.28c2,0,3.82,1,3.49,4.15l-9.13,74.22c-.33,3-1.83,4.32-4.65,4.32H453.39c-2.49,0-3.48-1.17-3.48-4.32ZM423.34,172a11.42,11.42,0,0,0-.16,2.33c0,3.48,1.82,6.31,8.3,6.31,8.13,0,16.1-5,20.09-7.48l4-32.37c-3.15-2.66-10-7.64-18.09-7.64-7.48,0-9.64,4.15-10.3,8.63Z"/><path class="cls-1" d="M512.18,193.93c-.34,3-1.5,4.32-4.49,4.32H493.91c-3,0-3.82-1.33-3.49-4.32L503.54,86.5c.33-3,1.66-4.31,4.65-4.31H522c3,0,3.65,1.32,3.32,4.31Z"/><path class="cls-1" d="M581.08,190.28c-5.14,3.65-13,9.29-26.9,9.29-14.44,0-22.08-7.63-22.08-19.92a42.67,42.67,0,0,1,.33-4.32l4.65-36.86c1.83-14.78,9.13-24.24,26.4-24.24a40.44,40.44,0,0,1,25.41,9l4.31-36.7c.33-3,1.66-4.31,4.65-4.31h13.78c3,0,3.82,1.49,3.49,4.31L602,193.93c-.33,3-1.82,4.32-4.65,4.32H584.57c-3,0-3.49-1.33-3.49-4.32ZM554.68,171c-.16,1.33-.33,2.5-.33,3.33,0,3.48,2,6.31,8.3,6.31,8.14,0,16.11-5,20.09-7.48l4-32.37c-3.16-2.66-10.13-7.64-18.1-7.64-7.64,0-9.63,4.15-10.3,8.63Z"/><path class="cls-1" d="M691.67,157.9c-.34,2.65-1.67,3.82-4.32,3.82H644.84L643.68,172c-.17,1.66-.33,2.82-.33,3.82,0,4.82,3.32,7.47,11.95,7.47,9.47,0,13.45-3.48,14-8.47l.17-1.66c.33-2.82,1.82-4.15,4.64-4.15h11.63c3,0,3.65,1.5,3.48,4.15L689,175c-1.33,14.28-9.8,24.57-35.2,24.57-21.92,0-31.88-8.3-31.88-21.25a22.86,22.86,0,0,1,.17-3.32l4.31-36.36c1.83-14.78,11.79-24.41,36.53-24.41,21.25,0,31.22,8.3,31.22,21.09a20.71,20.71,0,0,1-.17,3.32Zm-44.83-10.79h25.9l.83-6.31a16.79,16.79,0,0,0,.16-2.66c0-4.82-3.48-7.64-12.12-7.64-9.3,0-13.28,3.49-13.94,9.13Z"/><path class="cls-1" d="M763.56,118.38,762.23,129c-.33,3-1.66,3.82-4.81,4.15-11.79,1.16-20.92,6.47-24.91,9.8l-6.31,51c-.33,3-1.49,4.32-4.48,4.32H707.94c-3,0-3.82-1.33-3.49-4.32l9.13-74.39c.34-2.82,1.5-4,4.49-4h12.78c3,0,3.82,1.16,3.66,4l-.34,5.81c5-4.64,13-11.12,25.57-11.12C762.73,114.23,763.89,115.39,763.56,118.38Z"/><path class="cls-1" d="M815.36,190.28c-5.31,3.65-13.44,9.29-27.06,9.29-14.28,0-22.08-7.63-22.08-20.09a40.4,40.4,0,0,1,.33-4.15l4.65-36.86c1.82-14.78,9.13-24.24,26.4-24.24a39.39,39.39,0,0,1,25.57,9.13l.83-3.65c.66-2.82,1.49-4.15,4.48-4.15h13.28c2,0,3.82,1,3.49,4.15l-9.13,74.22c-.33,3-1.83,4.32-4.65,4.32H818.68c-2.49,0-3.48-1.17-3.48-4.32ZM788.63,172a11.42,11.42,0,0,0-.16,2.33c0,3.48,1.82,6.31,8.3,6.31,8.13,0,16.1-5,20.09-7.48l4-32.37c-3.15-2.66-10-7.64-18.09-7.64-7.48,0-9.64,4.15-10.3,8.63Z"/><path class="cls-2" d="M334.84,297.39l-4.31,35.7c-.33,3-1.5,4.32-4.49,4.32H311.6c-2.83,0-4-1.5-3.66-4.32l13-104.27c.33-3,1.65-4.32,4.48-4.32h34.2c27.23,0,37.53,11.79,37.53,25.24a28.16,28.16,0,0,1-.33,4.82L395,271.16c-1.66,15.44-11.95,26.23-42.84,26.23Zm6.81-54.29-4.32,35.7h16.44c11.62,0,18.26-3.16,19.43-11.46l1.33-9.79a28.83,28.83,0,0,0,.16-3.16c0-7.3-4.15-11.29-16.1-11.29Z"/><path class="cls-2" d="M451.24,329.44c-5.32,3.65-13.45,9.3-27.07,9.3-14.27,0-22.08-7.64-22.08-20.09,0-1.17.17-2.66.33-4.15l4.65-36.86c1.83-14.78,9.14-24.25,26.4-24.25A39.33,39.33,0,0,1,459,262.53l.83-3.66c.67-2.82,1.5-4.15,4.48-4.15h13.29c2,0,3.82,1,3.49,4.15L472,333.09c-.33,3-1.82,4.32-4.65,4.32H454.56c-2.49,0-3.49-1.16-3.49-4.32Zm-26.73-18.27a10.76,10.76,0,0,0-.17,2.33c0,3.49,1.83,6.31,8.3,6.31,8.14,0,16.11-5,20.09-7.47l4-32.38c-3.16-2.66-10-7.64-18.1-7.64-7.47,0-9.63,4.15-10.29,8.64Z"/><path class="cls-2" d="M522.47,296.9A68.78,68.78,0,0,1,523.8,311c.17-.5,3.32-9.46,5.15-13.45l17.6-38.69c1.16-2.65,2.32-4.15,5.14-4.15h12.62c3,0,4.82,1.33,3.49,4.15L518,366.63c-1,2.16-2.32,4.15-5.14,4.15h-10.3c-3,0-4.64-1.33-3.48-4.15l11.45-27.06-17.93-80.7c-.66-2.65,1.66-4.15,4.49-4.15h13.61c3,0,3.66,1.66,4.15,4.15Z"/><path class="cls-2" d="M238.71,145.16H163.55a8.49,8.49,0,0,0,0,17h75.16a8.49,8.49,0,0,0,0-17Z"/><path class="cls-2" d="M135,145.16h-8.34a8.49,8.49,0,0,0,0,17H135a8.49,8.49,0,1,0,0-17Z"/><path class="cls-2" d="M221.6,88.1H149a8.49,8.49,0,0,0,0,17H221.6a8.49,8.49,0,1,0,0-17Z"/><path class="cls-2" d="M146.55,116.68H113.89a8.44,8.44,0,1,0,0,16.88h32.66a8.44,8.44,0,0,0,0-16.88Z"/><path class="cls-2" d="M236.17,116.68h0a8.44,8.44,0,1,0,0,16.88h0a8.44,8.44,0,1,0,0-16.88Z"/><path class="cls-2" d="M207.69,116.68H175a8.44,8.44,0,1,0,0,16.88h32.66a8.44,8.44,0,0,0,0-16.88Z"/><path class="cls-2" d="M184.6,269.71l-1.78-3.08a6.75,6.75,0,0,0-11.69,0l-34.81,60.29a7.56,7.56,0,0,0,6.54,11.33h68.23a7.56,7.56,0,0,0,6.54-11.33Z"/><path class="cls-1" d="M157.5,222.78a7.56,7.56,0,0,0-13.08,0L84.3,326.92a7.56,7.56,0,0,0,6.54,11.33H115c-.23-.83-.41-1.67-.57-2.51l-.09-.57c-.12-.76-.22-1.53-.28-2.31a1.49,1.49,0,0,1,0-.21c-.06-.83-.07-1.66,0-2.49,0-.19,0-.39,0-.59,0-.78.09-1.57.19-2.35,0,0,0-.11,0-.16.1-.83.26-1.65.44-2.46,0-.2.09-.4.14-.6.19-.79.41-1.58.67-2.36l0-.08c.27-.8.59-1.59.93-2.38.11-.24.23-.49.34-.74.35-.75.73-1.48,1.15-2.2l45.85-79.42a3.18,3.18,0,0,0,0-3.16Z"/><path class="cls-1" d="M209.52,222.78a7.56,7.56,0,0,0-13.08,0l-6.27,10.87a3.13,3.13,0,0,0,0,3.16L235.87,316c.41.71,1,1.91,1.39,2.66l.24.54c.35.79.67,1.58.94,2.38l0,.09c.26.78.48,1.56.67,2.35.05.2.09.4.14.6.18.82.33,1.63.44,2.45,0,.07,0,.13,0,.2q.13,1.15.18,2.31c0,.2,0,.41,0,.62,0,.82,0,1.64-.05,2.46l0,.27c-.06.75-.15,1.49-.27,2.24,0,.2-.06.41-.1.61-.15.84-.33,1.67-.56,2.49h24.18a7.56,7.56,0,0,0,6.54-11.33Z"/><path class="cls-2" d="M226,173.74H128.43a8.72,8.72,0,0,0-8.79,7.44,8.5,8.5,0,0,0,8.42,9.53h28.63a.08.08,0,0,1,.07,0c.6,1.11,13.64,25.18,15.64,26.47a6.78,6.78,0,0,0,9.15,0c2-1.29,15-25.36,15.64-26.47a.07.07,0,0,1,.06,0h28.36a8.72,8.72,0,0,0,8.78-7.43A8.49,8.49,0,0,0,226,173.74Z"/></g></svg>