<svg xmlns="http://www.w3.org/2000/svg" viewBox="0 0 928.82 421.36"><defs><style>.cls-1{fill:#fece00;}</style></defs><title>Logo-CalderaSocial-DarkBG-Alt</title><g id="Layer_4" data-name="Layer 4"><path class="cls-1" d="M387.5,172.35c-1.49,14-11,27.06-41.67,27.06-27.07,0-36.53-11.29-36.53-23.9,0-1.17.17-2.66.33-4.32l7.31-60.27c1.66-14,11-27.07,41.67-27.07,26.9,0,36.53,11.13,36.53,23.75,0,1.16-.16,2.65-.33,4.31l-.83,7c-.33,3-1.5,4.15-4.32,4.15h-14c-3,0-3.81-1.49-3.48-4.15l.5-3.16a25.7,25.7,0,0,0,.16-3.15c0-6.64-5.31-10.13-15.61-10.13-11.12,0-17.26,4.15-18.26,12.45l-6.48,52.31c-.16,1.32-.33,2.49-.33,3.15,0,7,5.48,10.46,15.61,10.46,11.13,0,17.6-4.15,18.43-12.45l.66-6.31c.34-3,1.67-4.15,4.65-4.15h13.79c3.15,0,3.65,1.66,3.31,4.15Z"/><path class="cls-1" d="M450.76,190.12c-5.31,3.65-13.44,9.29-27.06,9.29-14.28,0-22.08-7.63-22.08-20.08a40.36,40.36,0,0,1,.33-4.16l4.65-36.86c1.83-14.77,9.13-24.24,26.4-24.24a39.33,39.33,0,0,1,25.57,9.14l.83-3.66c.66-2.82,1.49-4.15,4.48-4.15h13.29c2,0,3.81,1,3.48,4.15l-9.13,74.22c-.33,3-1.83,4.32-4.65,4.32H454.09c-2.5,0-3.49-1.17-3.49-4.32ZM424,171.85a11.42,11.42,0,0,0-.16,2.33c0,3.48,1.82,6.31,8.3,6.31,8.13,0,16.1-5,20.09-7.47l4-32.38c-3.15-2.66-10-7.64-18.09-7.64-7.48,0-9.63,4.15-10.3,8.63Z"/><path class="cls-1" d="M512.87,193.77c-.34,3-1.5,4.32-4.49,4.32H494.6c-3,0-3.82-1.33-3.49-4.32L504.23,86.35c.33-3,1.66-4.32,4.65-4.32h13.78c3,0,3.65,1.33,3.32,4.32Z"/><path class="cls-1" d="M581.77,190.12c-5.14,3.65-12.95,9.29-26.9,9.29-14.44,0-22.08-7.63-22.08-19.92a42.67,42.67,0,0,1,.33-4.32l4.65-36.86c1.83-14.77,9.14-24.24,26.4-24.24a40.5,40.5,0,0,1,25.41,9l4.31-36.69c.34-3,1.66-4.32,4.65-4.32h13.78c3,0,3.82,1.49,3.49,4.32L602.69,193.77c-.33,3-1.82,4.32-4.65,4.32H585.26c-3,0-3.49-1.33-3.49-4.32Zm-26.4-19.26c-.16,1.33-.33,2.49-.33,3.32,0,3.48,2,6.31,8.3,6.31,8.14,0,16.11-5,20.09-7.47l4-32.38c-3.16-2.66-10.13-7.64-18.1-7.64-7.64,0-9.63,4.15-10.29,8.63Z"/><path class="cls-1" d="M692.36,157.74c-.34,2.66-1.66,3.82-4.32,3.82H645.53l-1.16,10.29c-.16,1.66-.33,2.83-.33,3.82,0,4.82,3.32,7.47,12,7.47,9.47,0,13.45-3.48,14-8.46l.17-1.66c.33-2.83,1.82-4.15,4.65-4.15h11.62c3,0,3.65,1.49,3.49,4.15l-.17,1.82c-1.33,14.28-9.8,24.57-35.2,24.57-21.92,0-31.88-8.3-31.88-21.25a22.86,22.86,0,0,1,.17-3.32l4.31-36.36c1.83-14.78,11.79-24.41,36.53-24.41,21.25,0,31.22,8.31,31.22,21.09a20.71,20.71,0,0,1-.17,3.32ZM647.53,147h25.9l.83-6.31a16.79,16.79,0,0,0,.16-2.66c0-4.81-3.48-7.64-12.12-7.64-9.29,0-13.28,3.49-13.94,9.14Z"/><path class="cls-1" d="M764.25,118.22l-1.33,10.63c-.33,3-1.66,3.82-4.81,4.15-11.79,1.16-20.92,6.48-24.91,9.8l-6.31,51c-.33,3-1.49,4.32-4.48,4.32H708.63c-3,0-3.82-1.33-3.49-4.32l9.13-74.38c.34-2.83,1.5-4,4.49-4h12.78c3,0,3.82,1.16,3.66,4l-.34,5.81c5-4.65,12.95-11.13,25.57-11.13C763.42,114.07,764.59,115.23,764.25,118.22Z"/><path class="cls-1" d="M816.05,190.12c-5.31,3.65-13.44,9.29-27.06,9.29-14.28,0-22.08-7.63-22.08-20.08a40.36,40.36,0,0,1,.33-4.16l4.65-36.86c1.83-14.77,9.13-24.24,26.4-24.24a39.33,39.33,0,0,1,25.57,9.14l.83-3.66c.66-2.82,1.49-4.15,4.48-4.15h13.29c2,0,3.81,1,3.48,4.15l-9.13,74.22c-.33,3-1.83,4.32-4.65,4.32H819.38c-2.5,0-3.49-1.17-3.49-4.32Zm-26.73-18.27a11.42,11.42,0,0,0-.16,2.33c0,3.48,1.82,6.31,8.3,6.31,8.13,0,16.1-5,20.09-7.47l4-32.38c-3.15-2.66-10-7.64-18.09-7.64-7.48,0-9.63,4.15-10.3,8.63Z"/><path class="cls-1" d="M371.23,253.07a9.42,9.42,0,0,0,.17-1.66c0-7-5.15-10.46-15.11-10.46-10.63,0-16.61,4-17.44,12.12l-.16,1.66a19.26,19.26,0,0,0-.17,2.66c0,4.48,3,6,5.65,7l27.39,10.3c11,4.15,17.1,11.62,17.1,21.58,0,.83-.16,2.49-.33,4l-1.16,11.29c-1.49,13.94-11.79,27.06-42.17,27.06-27.07,0-37.36-11.46-37.36-24.24a23.8,23.8,0,0,1,.33-4l1.16-9.3c.34-3,1.66-4.32,4.49-4.32h13.94c3,0,3.82,1.49,3.49,4.32l-.83,6.31a22.84,22.84,0,0,0-.17,3.15c0,7,5.82,10.13,16.44,10.13,11.13,0,17.6-3.82,18.76-12.12l.67-4.65a16.32,16.32,0,0,0,.16-2.32c0-5.49-6.64-8.31-12.61-10.63l-23.08-9.13c-8.31-3.32-14.28-10.46-14.28-19.43,0-.83.16-2.33.33-4l1-8.3C319.1,236.14,327.73,223,357.78,223c26.74,0,35.87,11.46,35.87,23.74a29.38,29.38,0,0,1-.17,3.32l-.66,6.81c-.34,2.82-1.83,4.15-4.65,4.15H374.22c-2.66,0-3.82-1-3.49-4.15Z"/><path class="cls-1" d="M406.77,277.65c1.82-14.78,13.28-24.41,38.35-24.41,21.92,0,33.71,8.3,33.71,21.42a19.75,19.75,0,0,1-.17,3L474.18,314C472.35,329,461.06,338.58,436,338.58c-22.08,0-33.71-8.47-33.71-21.75a18.74,18.74,0,0,1,.17-2.82ZM456.58,281a25.72,25.72,0,0,0,.16-2.83c0-5.64-5.14-7.63-13.11-7.63-9.3,0-14.28,2.82-15.11,9l-4,31.38a24,24,0,0,0-.16,2.83c0,5.64,4.48,7.63,13.11,7.63,9.3,0,14.28-2.82,15.11-9.13Z"/><path class="cls-1" d="M563.18,274.49A26.36,26.36,0,0,1,563,278l-.33,2.49c-.33,3-1.66,4-4.65,4H545.41c-2.66,0-3.82-1.16-3.49-3.82l.17-1.32a11.11,11.11,0,0,0,.17-2c0-4.65-3.33-6.8-11.79-6.8-9.63,0-13.12,2.65-14,8.8L512.7,310a34.9,34.9,0,0,0-.5,4c0,5,3.32,7.3,12,7.3,9.46,0,13-2.82,13.78-9l.33-2.49c.33-3,1.66-4.15,4.48-4.15h12.79c3.15,0,3.82,1.82,3.49,4.15l-.5,4.15c-1.83,14.77-11,24.57-36.53,24.57-21.75,0-31.71-8.3-31.71-21.25a23.07,23.07,0,0,1,.16-3.32l4.32-36.36c1.83-14.78,11.62-24.41,36.69-24.41C553.71,253.24,563.18,262,563.18,274.49Z"/><path class="cls-1" d="M593.4,332.94c-.34,3-1.5,4.31-4.49,4.31H575.13c-3,0-3.82-1.32-3.48-4.31l9.13-74.22c.33-2.82,1.49-4.15,4.48-4.15H599c3,0,3.82,1.16,3.49,4.15Zm11.45-93.15c-.33,2.82-1.49,4-4.48,4H586.59c-3,0-3.82-1.16-3.49-4l1.66-14.28c.34-3,1.66-4.32,4.65-4.32h13.78c3,0,3.66,1.33,3.32,4.32Z"/><path class="cls-1" d="M662.47,329.28c-5.31,3.66-13.45,9.3-27.06,9.3-14.28,0-22.09-7.64-22.09-20.09a40.43,40.43,0,0,1,.34-4.15l4.64-36.86c1.83-14.78,9.14-24.24,26.41-24.24a39.41,39.41,0,0,1,25.57,9.13l.83-3.65c.66-2.82,1.49-4.15,4.48-4.15h13.28c2,0,3.82,1,3.49,4.15l-9.13,74.22c-.34,3-1.83,4.31-4.65,4.31H665.79c-2.49,0-3.49-1.16-3.49-4.31ZM635.74,311a10.67,10.67,0,0,0-.17,2.32c0,3.49,1.83,6.31,8.3,6.31,8.14,0,16.11-5,20.09-7.47l4-32.38c-3.16-2.65-10-7.63-18.1-7.63-7.47,0-9.63,4.15-10.29,8.63Z"/><path class="cls-1" d="M724.57,332.94c-.33,3-1.49,4.31-4.48,4.31H706.31c-3,0-3.82-1.32-3.49-4.31l13.12-107.43c.33-3,1.66-4.32,4.65-4.32h13.78c3,0,3.65,1.33,3.32,4.32Z"/><path class="cls-1" d="M246.78,145.11h-39.1a8.49,8.49,0,0,0,0,17h39.1a8.49,8.49,0,0,0,0-17Z"/><path class="cls-1" d="M179.11,145.11h-3.47a8.49,8.49,0,1,0,0,17h3.47a8.49,8.49,0,1,0,0-17Z"/><path class="cls-1" d="M147.06,145.11H107.85a8.49,8.49,0,1,0,0,17h39.21a8.49,8.49,0,1,0,0-17Z"/><path class="cls-1" d="M184.39,88.05H169.16a8.49,8.49,0,0,0,0,17h15.23a8.49,8.49,0,0,0,0-17Z"/><path class="cls-1" d="M215.34,88.05H213a8.49,8.49,0,0,0,0,17h2.38a8.49,8.49,0,0,0,0-17Z"/><path class="cls-1" d="M162.56,116.63H114.78a8.44,8.44,0,0,0,0,16.88h47.78a8.44,8.44,0,0,0,0-16.88Z"/><path class="cls-1" d="M230.23,116.63H191a8.44,8.44,0,0,0,0,16.88h39.19a8.44,8.44,0,0,0,0-16.88Z"/><path class="cls-1" d="M184.6,269.66l-1.78-3.08a6.75,6.75,0,0,0-11.69,0l-34.81,60.29a7.55,7.55,0,0,0,6.54,11.32h68.23a7.55,7.55,0,0,0,6.54-11.32Z"/><path class="cls-1" d="M157.5,222.73a7.55,7.55,0,0,0-13.08,0L84.3,326.87a7.55,7.55,0,0,0,6.54,11.32H115c-.23-.83-.41-1.67-.57-2.51l-.09-.57c-.12-.77-.22-1.54-.28-2.31a1.49,1.49,0,0,1,0-.21c-.06-.83-.07-1.66,0-2.49,0-.2,0-.39,0-.59,0-.78.09-1.57.19-2.35,0-.05,0-.11,0-.16.1-.83.26-1.65.44-2.46,0-.2.09-.4.14-.6.19-.79.41-1.58.67-2.36l0-.08c.27-.8.59-1.59.93-2.38.11-.25.23-.49.34-.74.35-.75.73-1.49,1.15-2.2l45.85-79.42a3.18,3.18,0,0,0,0-3.16Z"/><path class="cls-1" d="M209.52,222.73a7.55,7.55,0,0,0-13.08,0l-6.27,10.87a3.13,3.13,0,0,0,0,3.16l45.7,79.15c.41.72,1,1.92,1.39,2.67l.24.54c.35.78.67,1.57.94,2.37l0,.1c.26.78.48,1.56.67,2.35.05.2.09.4.14.6.18.81.33,1.63.44,2.45,0,.06,0,.13,0,.2.09.76.15,1.53.18,2.3,0,.21,0,.42,0,.63,0,.82,0,1.64-.05,2.46l0,.27c-.06.75-.15,1.49-.27,2.23,0,.21-.06.41-.1.62-.15.83-.33,1.67-.56,2.49h24.18a7.55,7.55,0,0,0,6.54-11.32Z"/><path class="cls-1" d="M226,173.69H128.43a8.72,8.72,0,0,0-8.79,7.43,8.5,8.5,0,0,0,8.42,9.54h28.63a.07.07,0,0,1,.07,0c.6,1.11,13.64,25.18,15.64,26.47a6.78,6.78,0,0,0,9.15,0c2-1.29,15-25.36,15.64-26.47a.05.05,0,0,1,.06,0h28.36a8.73,8.73,0,0,0,8.78-7.44A8.49,8.49,0,0,0,226,173.69Z"/></g></svg>