<svg id="Layer_1" data-name="Layer 1" xmlns="http://www.w3.org/2000/svg" viewBox="0 0 928.82 421.36"><defs><style>.cls-1{fill:#fff;}.cls-2{fill:#ff3721;}</style></defs><title>Logo-CalderaWP-DarkBG</title><path class="cls-1" d="M387.08,172.36c-1.49,13.95-10.95,27.06-41.67,27.06-27.06,0-36.53-11.29-36.53-23.9,0-1.17.17-2.66.33-4.32l7.31-60.27c1.66-14,11-27.07,41.67-27.07,26.9,0,36.53,11.13,36.53,23.75,0,1.16-.16,2.65-.33,4.31l-.83,7c-.33,3-1.49,4.15-4.32,4.15H375.3c-3,0-3.82-1.5-3.49-4.15l.5-3.16a25.7,25.7,0,0,0,.16-3.15c0-6.64-5.31-10.13-15.6-10.13-11.13,0-17.27,4.15-18.27,12.45l-6.47,52.3c-.17,1.33-.33,2.5-.33,3.16,0,7,5.47,10.46,15.6,10.46,11.13,0,17.6-4.15,18.43-12.45l.67-6.31c.33-3,1.66-4.15,4.64-4.15h13.79c3.15,0,3.65,1.66,3.32,4.15Z"/><path class="cls-1" d="M450.35,190.13c-5.32,3.65-13.45,9.29-27.07,9.29-14.28,0-22.08-7.63-22.08-20.09,0-1.16.17-2.65.33-4.15l4.65-36.86c1.83-14.77,9.13-24.24,26.4-24.24a39.39,39.39,0,0,1,25.57,9.13l.83-3.65c.66-2.82,1.49-4.15,4.48-4.15h13.29c2,0,3.81,1,3.48,4.15l-9.13,74.22c-.33,3-1.83,4.32-4.65,4.32H453.67c-2.49,0-3.49-1.17-3.49-4.32Zm-26.74-18.27a11.42,11.42,0,0,0-.16,2.33c0,3.48,1.82,6.31,8.3,6.31,8.14,0,16.11-5,20.09-7.47l4-32.38c-3.15-2.66-10-7.64-18.09-7.64-7.47,0-9.63,4.15-10.3,8.63Z"/><path class="cls-1" d="M512.45,193.78c-.33,3-1.5,4.32-4.49,4.32H494.18c-3,0-3.81-1.33-3.48-4.32L503.81,86.35c.34-3,1.66-4.31,4.65-4.31h13.78c3,0,3.66,1.32,3.33,4.31Z"/><path class="cls-1" d="M581.35,190.13c-5.14,3.65-13,9.29-26.89,9.29-14.45,0-22.09-7.63-22.09-19.92a40.08,40.08,0,0,1,.34-4.32l4.64-36.86c1.83-14.77,9.14-24.24,26.41-24.24a40.44,40.44,0,0,1,25.4,9l4.31-36.7c.34-3,1.66-4.31,4.65-4.31h13.79c3,0,3.81,1.49,3.48,4.31L602.28,193.78c-.34,3-1.83,4.32-4.65,4.32H584.84c-3,0-3.49-1.33-3.49-4.32ZM555,170.87a31,31,0,0,0-.34,3.32c0,3.48,2,6.31,8.3,6.31,8.14,0,16.11-5,20.09-7.47l4-32.38C583.84,138,576.87,133,568.9,133c-7.64,0-9.63,4.15-10.29,8.63Z"/><path class="cls-1" d="M691.94,157.75c-.34,2.66-1.66,3.82-4.32,3.82H645.11L644,171.86c-.16,1.66-.33,2.83-.33,3.82,0,4.82,3.32,7.47,12,7.47,9.47,0,13.45-3.48,13.95-8.46l.17-1.66c.33-2.83,1.82-4.16,4.65-4.16H686c3,0,3.65,1.5,3.49,4.16l-.17,1.82c-1.33,14.28-9.8,24.57-35.2,24.57-21.92,0-31.88-8.3-31.88-21.25a22.86,22.86,0,0,1,.17-3.32l4.32-36.36c1.82-14.78,11.78-24.41,36.52-24.41,21.26,0,31.22,8.3,31.22,21.09a20.71,20.71,0,0,1-.17,3.32ZM647.11,147H673l.83-6.31A15.82,15.82,0,0,0,674,138c0-4.81-3.49-7.64-12.13-7.64-9.29,0-13.28,3.49-13.94,9.14Z"/><path class="cls-1" d="M763.83,118.23l-1.32,10.63c-.34,3-1.66,3.82-4.82,4.15-11.79,1.16-20.92,6.48-24.91,9.8l-6.3,51c-.34,3-1.5,4.32-4.49,4.32H708.21c-3,0-3.82-1.33-3.49-4.32l9.14-74.39c.33-2.82,1.49-4,4.48-4h12.78c3,0,3.82,1.16,3.66,4l-.33,5.82c5-4.65,12.95-11.13,25.57-11.13C763,114.08,764.17,115.24,763.83,118.23Z"/><path class="cls-1" d="M815.64,190.13c-5.32,3.65-13.45,9.29-27.07,9.29-14.28,0-22.08-7.63-22.08-20.09,0-1.16.17-2.65.33-4.15l4.65-36.86c1.83-14.77,9.13-24.24,26.4-24.24a39.39,39.39,0,0,1,25.57,9.13l.83-3.65c.66-2.82,1.49-4.15,4.48-4.15H842c2,0,3.81,1,3.48,4.15l-9.13,74.22c-.33,3-1.83,4.32-4.65,4.32H819c-2.49,0-3.49-1.17-3.49-4.32ZM788.9,171.86a11.42,11.42,0,0,0-.16,2.33c0,3.48,1.82,6.31,8.3,6.31,8.14,0,16.11-5,20.09-7.47l4-32.38C818,138,811.15,133,803,133c-7.47,0-9.63,4.15-10.3,8.63Z"/><path class="cls-2" d="M398.71,284.75c.5,4.49.83,11.13.83,16.61a128.55,128.55,0,0,1,4.81-16.44l21.09-56.62c1-2.66,2.66-4.15,5.48-4.15H443.7c3,0,3.49,1.49,2.49,4.15L407,332.9c-1,2.83-2.66,4.16-5.48,4.16H387.42c-2.49,0-4-1.5-4.32-4.16l-7.31-57.78a108.2,108.2,0,0,1-.49-15.44,123.68,123.68,0,0,1-4.16,15.44L349.39,332.9c-1,2.83-2.65,4.16-5.64,4.16H329.64c-2.5,0-4-1.5-4.32-4.16L311.87,228.3c-.33-2.66.66-4.15,3.65-4.15h14.61c2.83,0,4,1.49,4.32,4.15l7.14,56.62c.5,4.32.67,9.63.83,13.95,1.16-4.15,3-9.63,4.65-13.95l21.25-56.62c1-2.66,2.49-4.15,5.48-4.15h13.45c3,0,4,1.49,4.32,4.15Z"/><path class="cls-2" d="M474.26,297l-4.32,35.7c-.33,3-1.49,4.32-4.48,4.32H451c-2.82,0-4-1.5-3.65-4.32l12.95-104.27c.33-3,1.66-4.32,4.48-4.32H499c27.23,0,37.52,11.79,37.52,25.24a28,28,0,0,1-.33,4.81l-1.83,16.61c-1.66,15.44-12,26.23-42.83,26.23Zm6.81-54.29-4.32,35.7h16.44c11.62,0,18.26-3.16,19.42-11.46l1.33-9.8a26.92,26.92,0,0,0,.17-3.15c0-7.31-4.15-11.29-16.11-11.29Z"/><path class="cls-2" d="M242.12,145H231.81a8.49,8.49,0,0,0,0,17h10.31a8.49,8.49,0,0,0,0-17Z"/><path class="cls-2" d="M203.24,145H178.32a8.49,8.49,0,1,0,0,17h24.92a8.49,8.49,0,0,0,0-17Z"/><path class="cls-2" d="M149.74,145H111.83a8.49,8.49,0,1,0,0,17h37.91a8.49,8.49,0,0,0,0-17Z"/><path class="cls-2" d="M214.67,104.93a8.49,8.49,0,0,0,0-17H190a8.49,8.49,0,0,0,0,17Z"/><path class="cls-2" d="M161.47,88H136.15a8.49,8.49,0,0,0,0,17h25.32a8.49,8.49,0,0,0,0-17Z"/><path class="cls-2" d="M160.4,116.53H118a8.44,8.44,0,0,0,0,16.88H160.4a8.44,8.44,0,0,0,0-16.88Z"/><path class="cls-2" d="M195.11,116.53h-6.23a8.44,8.44,0,0,0,0,16.88h6.23a8.44,8.44,0,0,0,0-16.88Z"/><path class="cls-2" d="M238.41,116.53H223.59a8.44,8.44,0,0,0,0,16.88h14.82a8.44,8.44,0,0,0,0-16.88Z"/><path class="cls-2" d="M184.6,269.56l-1.78-3.08a6.75,6.75,0,0,0-11.69,0l-34.81,60.29a7.56,7.56,0,0,0,6.54,11.33h68.23a7.56,7.56,0,0,0,6.54-11.33Z"/><path class="cls-1" d="M157.5,222.63a7.56,7.56,0,0,0-13.08,0L84.3,326.77a7.56,7.56,0,0,0,6.54,11.33H115c-.23-.83-.41-1.66-.57-2.51l-.09-.57c-.12-.76-.22-1.53-.28-2.3a1.8,1.8,0,0,1,0-.22c-.06-.83-.07-1.66,0-2.49,0-.19,0-.39,0-.59,0-.78.09-1.57.19-2.35,0-.05,0-.11,0-.16.1-.82.26-1.64.44-2.46,0-.2.09-.4.14-.59.19-.8.41-1.58.67-2.36l0-.09c.27-.8.59-1.59.93-2.37.11-.25.23-.5.34-.74.35-.75.73-1.49,1.15-2.21l45.85-79.42a3.16,3.16,0,0,0,0-3.15Z"/><path class="cls-1" d="M209.52,222.63a7.56,7.56,0,0,0-13.08,0l-6.27,10.88a3.12,3.12,0,0,0,0,3.15l45.7,79.16c.41.71,1,1.91,1.39,2.66l.24.54c.35.79.67,1.58.94,2.38l0,.1c.26.77.48,1.55.67,2.34.05.2.09.4.14.6.18.82.33,1.63.44,2.45,0,.07,0,.13,0,.2q.13,1.16.18,2.31c0,.2,0,.41,0,.62,0,.82,0,1.64-.05,2.46l0,.27c-.06.75-.15,1.5-.27,2.24,0,.2-.06.41-.1.61-.15.84-.33,1.67-.56,2.49h24.18a7.56,7.56,0,0,0,6.54-11.33Z"/><path class="cls-2" d="M226,173.59H128.43a8.73,8.73,0,0,0-8.79,7.44,8.5,8.5,0,0,0,8.42,9.53h28.63a.08.08,0,0,1,.07,0c.6,1.11,13.64,25.18,15.64,26.47a6.78,6.78,0,0,0,9.15,0c2-1.29,15-25.36,15.64-26.47a.07.07,0,0,1,.06,0h28.36a8.72,8.72,0,0,0,8.78-7.43A8.49,8.49,0,0,0,226,173.59Z"/></svg>