<svg xmlns="http://www.w3.org/2000/svg" viewBox="0 0 928.82 421.36"><defs><style>.cls-1{fill:#333;}.cls-2{fill:#78d100;}</style></defs><title>Logo-CalderaForms</title><g id="Layer_3" data-name="Layer 3"><path class="cls-1" d="M387.08,173.23c-1.49,13.94-10.95,27.06-41.67,27.06-27.06,0-36.53-11.29-36.53-23.91,0-1.16.17-2.65.33-4.32l7.31-60.27c1.66-13.94,11-27.06,41.67-27.06,26.9,0,36.53,11.12,36.53,23.74,0,1.16-.16,2.66-.33,4.32l-.83,7c-.33,3-1.49,4.15-4.32,4.15H375.3c-3,0-3.82-1.49-3.49-4.15l.5-3.15a25.76,25.76,0,0,0,.16-3.16c0-6.64-5.31-10.12-15.6-10.12-11.13,0-17.27,4.15-18.27,12.45l-6.47,52.3c-.17,1.33-.33,2.49-.33,3.15,0,7,5.47,10.46,15.6,10.46,11.13,0,17.6-4.15,18.43-12.45l.67-6.31c.33-3,1.66-4.15,4.64-4.15h13.79c3.15,0,3.65,1.66,3.32,4.15Z"/><path class="cls-1" d="M450.35,191c-5.32,3.65-13.45,9.3-27.07,9.3-14.28,0-22.08-7.64-22.08-20.09,0-1.16.17-2.66.33-4.15l4.65-36.86C408,124.41,415.31,115,432.58,115a39.39,39.39,0,0,1,25.57,9.13l.83-3.65c.66-2.82,1.49-4.15,4.48-4.15h13.29c2,0,3.81,1,3.48,4.15l-9.13,74.21c-.33,3-1.83,4.32-4.65,4.32H453.67c-2.49,0-3.49-1.16-3.49-4.32Zm-26.74-18.26a11.32,11.32,0,0,0-.16,2.32c0,3.49,1.82,6.31,8.3,6.31,8.14,0,16.11-5,20.09-7.47l4-32.38c-3.15-2.65-10-7.63-18.09-7.63-7.47,0-9.63,4.15-10.3,8.63Z"/><path class="cls-1" d="M512.45,194.64c-.33,3-1.5,4.32-4.49,4.32H494.18c-3,0-3.81-1.32-3.48-4.32L503.81,87.22c.34-3,1.66-4.32,4.65-4.32h13.78c3,0,3.66,1.33,3.33,4.32Z"/><path class="cls-1" d="M581.35,191c-5.14,3.65-13,9.3-26.89,9.3-14.45,0-22.09-7.64-22.09-19.92a39.88,39.88,0,0,1,.34-4.32l4.64-36.86c1.83-14.78,9.14-24.24,26.41-24.24a40.5,40.5,0,0,1,25.4,9l4.31-36.69c.34-3,1.66-4.32,4.65-4.32h13.79c3,0,3.81,1.5,3.48,4.32L602.28,194.64c-.34,3-1.83,4.32-4.65,4.32H584.84c-3,0-3.49-1.32-3.49-4.32ZM555,171.73a31,31,0,0,0-.34,3.32c0,3.49,2,6.31,8.3,6.31,8.14,0,16.11-5,20.09-7.47l4-32.38c-3.16-2.65-10.13-7.63-18.1-7.63-7.64,0-9.63,4.15-10.29,8.63Z"/><path class="cls-1" d="M691.94,158.61c-.34,2.66-1.66,3.83-4.32,3.83H645.11L644,172.73c-.16,1.66-.33,2.82-.33,3.82,0,4.81,3.32,7.47,12,7.47,9.47,0,13.45-3.49,13.95-8.47l.17-1.66c.33-2.82,1.82-4.15,4.65-4.15H686c3,0,3.65,1.49,3.49,4.15l-.17,1.83c-1.33,14.28-9.8,24.57-35.2,24.57-21.92,0-31.88-8.3-31.88-21.25a22.79,22.79,0,0,1,.17-3.32l4.32-36.36c1.82-14.78,11.78-24.41,36.52-24.41,21.26,0,31.22,8.3,31.22,21.08a20.77,20.77,0,0,1-.17,3.33Zm-44.83-10.79H673l.83-6.31a15.71,15.71,0,0,0,.17-2.65c0-4.82-3.49-7.64-12.13-7.64-9.29,0-13.28,3.49-13.94,9.13Z"/><path class="cls-1" d="M763.83,119.1l-1.32,10.63c-.34,3-1.66,3.81-4.82,4.15-11.79,1.16-20.92,6.47-24.91,9.79l-6.3,51c-.34,3-1.5,4.32-4.49,4.32H708.21c-3,0-3.82-1.32-3.49-4.32l9.14-74.38c.33-2.82,1.49-4,4.48-4h12.78c3,0,3.82,1.16,3.66,4l-.33,5.81c5-4.65,12.95-11.12,25.57-11.12C763,115,764.17,116.11,763.83,119.1Z"/><path class="cls-1" d="M815.64,191c-5.32,3.65-13.45,9.3-27.07,9.3-14.28,0-22.08-7.64-22.08-20.09,0-1.16.17-2.66.33-4.15l4.65-36.86c1.83-14.78,9.13-24.24,26.4-24.24a39.39,39.39,0,0,1,25.57,9.13l.83-3.65c.66-2.82,1.49-4.15,4.48-4.15H842c2,0,3.81,1,3.48,4.15l-9.13,74.21c-.33,3-1.83,4.32-4.65,4.32H819c-2.49,0-3.49-1.16-3.49-4.32ZM788.9,172.73a11.32,11.32,0,0,0-.16,2.32c0,3.49,1.82,6.31,8.3,6.31,8.14,0,16.11-5,20.09-7.47l4-32.38c-3.15-2.65-10-7.63-18.09-7.63-7.47,0-9.63,4.15-10.3,8.63Z"/><path class="cls-2" d="M386.42,225.22c3,0,4.15,1,3.82,4l-1.33,10.46c-.33,3-1.83,4.15-4.65,4.15H341.92l-3.32,26.9h39.52c2.82,0,4,1,3.65,4l-1.33,10.63c-.33,3-1.82,4.15-4.65,4.15H336.28l-5.48,44.33c-.33,3-1.5,4.32-4.49,4.32H311.87c-2.82,0-4-1.33-3.65-4.32l12.95-104.27c.33-3,1.66-4.32,4.48-4.32Z"/><path class="cls-2" d="M394.23,278.52c1.82-14.78,13.28-24.41,38.35-24.41,21.92,0,33.71,8.31,33.71,21.42a19.69,19.69,0,0,1-.17,3l-4.48,36.36c-1.83,14.95-13.12,24.58-38.19,24.58-22.08,0-33.71-8.47-33.71-21.75a18.86,18.86,0,0,1,.17-2.83ZM444,281.84a25.59,25.59,0,0,0,.16-2.82c0-5.65-5.14-7.64-13.11-7.64-9.3,0-14.28,2.82-15.11,9l-4,31.38a24,24,0,0,0-.16,2.82c0,5.65,4.48,7.64,13.11,7.64,9.3,0,14.28-2.82,15.11-9.13Z"/><path class="cls-2" d="M536.52,258.26l-1.32,10.63c-.34,3-1.66,3.82-4.82,4.15-11.79,1.16-20.92,6.48-24.9,9.8l-6.31,51c-.34,3-1.5,4.32-4.49,4.32H480.9c-3,0-3.82-1.33-3.49-4.32l9.14-74.38c.33-2.83,1.49-4,4.48-4h12.78c3,0,3.82,1.16,3.66,4l-.33,5.81c5-4.65,13-11.13,25.57-11.13C535.69,254.11,536.86,255.27,536.52,258.26Z"/><path class="cls-2" d="M565.41,255.44c3,0,3.49,1.16,3.49,4l-.17,4c4.82-3.82,12.29-9.3,26.24-9.3,9.63,0,17.76,4.32,20.42,11.13,4.65-3.49,12.12-11.13,28.56-11.13,13.12,0,22.08,7.81,22.08,18.93a24.2,24.2,0,0,1-.16,3.32l-7,57.45c-.33,3-1.82,4.32-4.65,4.32H640.63c-2.33,0-3.82-1.33-3.49-4.32L643.29,283c.16-1.66.33-2.65.33-3.65,0-4.15-2.66-6.31-8.14-6.31-8.3,0-15.94,4.82-19.26,7.47v1.17l-6.31,52.13c-.33,3-1.82,4.32-4.65,4.32H591.65c-2.33,0-4-1.33-3.66-4.32L594.3,282c.17-1.16.34-2.16.34-2.66,0-4.15-2.66-6.31-8.14-6.31-8.3,0-15.61,4.65-19.09,7.47l-6.64,53.3c-.34,3-1.5,4.32-4.49,4.32H542.5c-2.49,0-3.82-1.33-3.49-4.32l9.14-74.38c.33-2.83,1.49-4,4.48-4Z"/><path class="cls-2" d="M726.64,277.36a18.38,18.38,0,0,0,.17-2.33c0-4-4.32-5.64-11.13-5.64-7.14,0-11.79,1.16-12.62,6.31l-.16,1a12.24,12.24,0,0,0-.17,2c0,2.32,1,4.15,4.15,5.31L730,292.3c9.3,3.32,13.78,8.8,13.78,15.44a22.79,22.79,0,0,1-.33,4l-.83,7.47c-1.16,10.63-10.63,20.26-35,20.26-22.25,0-31.72-9.13-31.72-18.77A20.47,20.47,0,0,1,676,318l.5-3.82c.33-2.66,1.49-3.82,4.32-3.82H693.1c2.66,0,3.49,1,3.16,3.82l-.17,1.83a16.6,16.6,0,0,0-.17,2.15c0,4.15,5.65,5.81,12.46,5.81,7.63,0,13.78-1.49,14.44-6.64l.17-1.16a21.14,21.14,0,0,0,.17-2.82c0-2.16-2.16-4-6.65-5.65l-22.58-8.63c-7-2.66-11.29-8.47-11.29-15.77,0-.34,0-1.17.17-3l.49-5.15c1-10.63,9.14-21.09,33.38-21.09,21.42,0,30.22,9.8,30.22,19.76a24,24,0,0,1-.17,2.66l-.33,2.82c-.33,2.82-1.49,3.82-4.32,3.82H729.8c-2.49,0-3.49-1.16-3.32-3.82Z"/><path class="cls-2" d="M252.93,145h-30.8a8.49,8.49,0,0,0,0,17h30.8a8.49,8.49,0,0,0,0-17Z"/><path class="cls-2" d="M193.56,145H160.74a8.49,8.49,0,0,0,0,17h32.82a8.49,8.49,0,0,0,0-17Z"/><path class="cls-2" d="M132.16,145h0a8.49,8.49,0,1,0,0,17h0a8.49,8.49,0,0,0,0-17Z"/><path class="cls-2" d="M186.24,88H144a8.49,8.49,0,1,0,0,17h42.25a8.49,8.49,0,0,0,0-17Z"/><path class="cls-2" d="M152.39,116.56H110a8.44,8.44,0,0,0,0,16.88h42.41a8.44,8.44,0,0,0,0-16.88Z"/><path class="cls-2" d="M248.05,116.56h-7.81a8.44,8.44,0,0,0,0,16.88h7.81a8.44,8.44,0,0,0,0-16.88Z"/><path class="cls-2" d="M211.76,116.56h-30.9a8.44,8.44,0,0,0,0,16.88h30.9a8.44,8.44,0,0,0,0-16.88Z"/><path class="cls-2" d="M184.6,269.59l-1.78-3.08a6.75,6.75,0,0,0-11.69,0L136.32,326.8a7.56,7.56,0,0,0,6.54,11.33h68.23a7.56,7.56,0,0,0,6.54-11.33Z"/><path class="cls-1" d="M157.5,222.66a7.56,7.56,0,0,0-13.08,0L84.3,326.8a7.56,7.56,0,0,0,6.54,11.33H115c-.23-.84-.41-1.67-.57-2.52l-.09-.57c-.12-.76-.22-1.53-.28-2.3a1.5,1.5,0,0,1,0-.22c-.06-.82-.07-1.65,0-2.48,0-.2,0-.4,0-.59,0-.79.09-1.57.19-2.36,0,0,0-.11,0-.16.1-.82.26-1.64.44-2.46,0-.2.09-.4.14-.59.19-.8.41-1.58.67-2.36l0-.09c.27-.8.59-1.59.93-2.37.11-.25.23-.5.34-.74.35-.75.73-1.49,1.15-2.21l45.85-79.42a3.16,3.16,0,0,0,0-3.15Z"/><path class="cls-1" d="M209.52,222.66a7.55,7.55,0,0,0-13.08,0l-6.27,10.87a3.12,3.12,0,0,0,0,3.15l45.7,79.16c.41.71,1,1.91,1.39,2.66l.24.55c.35.78.67,1.57.94,2.37l0,.1c.26.77.48,1.55.67,2.34.05.2.09.4.14.61.18.81.33,1.62.44,2.44,0,.07,0,.13,0,.2q.13,1.15.18,2.31c0,.21,0,.41,0,.62,0,.82,0,1.64-.05,2.46l0,.27c-.06.75-.15,1.5-.27,2.24,0,.2-.06.41-.1.61-.15.84-.33,1.67-.56,2.49h24.18a7.56,7.56,0,0,0,6.54-11.33Z"/><path class="cls-2" d="M226,173.62H128.43a8.73,8.73,0,0,0-8.79,7.44,8.5,8.5,0,0,0,8.42,9.53h28.63a.08.08,0,0,1,.07,0c.6,1.11,13.64,25.18,15.64,26.47a6.78,6.78,0,0,0,9.15,0c2-1.29,15-25.36,15.64-26.47a.07.07,0,0,1,.06,0h28.36a8.72,8.72,0,0,0,8.78-7.43A8.49,8.49,0,0,0,226,173.62Z"/></g></svg>